<?xml version="1.0" encoding="UTF-8" standalone="no"?>
<!DOCTYPE svg PUBLIC "-//W3C//DTD SVG 1.1//EN" "http://www.w3.org/Graphics/SVG/1.1/DTD/svg11.dtd">
<svg width="100%" height="100%" viewBox="0 0 16 16" version="1.1" xmlns="http://www.w3.org/2000/svg" xmlns:xlink="http://www.w3.org/1999/xlink" xml:space="preserve" xmlns:serif="http://www.serif.com/" style="fill-rule:evenodd;clip-rule:evenodd;stroke-linejoin:round;stroke-miterlimit:2;">
    <g transform="matrix(0.666667,0,0,0.666667,0,0)">
        <rect x="0" y="0" width="24" height="24" style="fill:none;fill-rule:nonzero;"/>
    </g>
    <g transform="matrix(0.875,0,0,0.777778,-2.5,-1.33333)">
        <path d="M20,8L17.19,8C16.74,7.22 16.12,6.55 15.37,6.04L17,4.41L15.59,3L13.42,5.17C12.96,5.06 12.49,5 12,5C11.51,5 11.04,5.06 10.59,5.17L8.41,3L7,4.41L8.62,6.04C7.88,6.55 7.26,7.22 6.81,8L4,8L4,10L6.09,10C6.04,10.33 6,10.66 6,11L6,12L4,12L4,14L6,14L6,15C6,15.34 6.04,15.67 6.09,16L4,16L4,18L6.81,18C7.85,19.79 9.78,21 12,21C14.22,21 16.15,19.79 17.19,18L20,18L20,16L17.91,16C17.96,15.67 18,15.34 18,15L18,14L20,14L20,12L18,12L18,11C18,10.66 17.96,10.33 17.91,10L20,10L20,8ZM14,16L10,16L10,14L14,14L14,16ZM14,12L10,12L10,10L14,10L14,12Z" style="fill:rgb(32,203,18);fill-rule:nonzero;"/>
    </g>
</svg>
